<?xml version="1.0" encoding="UTF-8"?>
<svg id="Layer_1" xmlns="http://www.w3.org/2000/svg" xmlns:xlink="http://www.w3.org/1999/xlink" version="1.1" viewBox="0 0 477 984">
  <!-- Generator: Adobe Illustrator 30.2.1, SVG Export Plug-In . SVG Version: 2.1.1 Build 1)  -->
  <defs>
    <style>
      .st0, .st1, .st2, .st3, .st4, .st5 {
        fill: none;
      }

      .st1 {
        stroke-width: 4px;
      }

      .st1, .st2, .st3, .st4, .st5 {
        stroke: #fff;
      }

      .st1, .st3, .st4 {
        stroke-linecap: round;
      }

      .st2 {
        stroke-linejoin: round;
      }

      .st6, .st4 {
        isolation: isolate;
      }

      .st3, .st4 {
        stroke-width: 1.5px;
      }

      .st7 {
        fill: #fff;
      }

      .st4 {
        opacity: .5;
      }

      .st8 {
        clip-path: url(#clippath);
      }
    </style>
    <clipPath id="clippath">
      <path class="st0" d="M71,110.5c0,12.4-10.1,22.5-22.5,22.5s-22.5-10.1-22.5-22.5,10.1-22.5,22.5-22.5,22.5,10.1,22.5,22.5Z"/>
    </clipPath>
  </defs>
  <path class="st7" d="M448.1,103.6c-1.6,0-2.9-1.3-2.9-2.8s1.3-2.8,2.9-2.8,2.9,1.3,2.9,2.8-1.3,2.8-2.9,2.8Z"/>
  <path class="st7" d="M448.1,112.1c-1.6,0-2.9-1.3-2.9-2.8s1.3-2.8,2.9-2.8,2.9,1.3,2.9,2.8-1.3,2.8-2.9,2.8Z"/>
  <path class="st7" d="M448.1,120.5c-1.6,0-2.9-1.3-2.9-2.8s1.3-2.8,2.9-2.8,2.9,1.3,2.9,2.8-1.3,2.8-2.9,2.8Z"/>
  <g class="st8">
    <g id="jSTmWw">
      <image id="jSTmWw1" class="st6" width="1187" height="1201" transform="translate(25 88) scale(0)" xlink:href="Story 2-1.png"/>
    </g>
  </g>
  <path class="st7" d="M386.8,906.5l-.7.7.7.8.7-.8-.7-.7ZM373.8,892.9l-.7.7h0l.7-.7ZM373.4,892.5l.8-.6h0l-.8.7h0ZM373.8,878.9l.7.7h0l-.7-.7ZM386.8,878.5l-.7.7.7.6.7-.6-.7-.7ZM399.8,878.9l-.7.7.7-.7ZM400.1,892.5l-.8-.7h0l.8.6h0ZM393.3,899.7l-.7-.7h0l.7.7ZM387.5,905.8l-13-13.6-1.4,1.4,13,13.6,1.4-1.4ZM374.5,892.2c-.1,0-.2-.2-.3-.3l-1.5,1.3c.1.2.3.3.4.4l1.4-1.4ZM374.2,891.8c-3-3.5-2.9-8.9.3-12.2l-1.4-1.4c-3.9,4.1-4.1,10.7-.4,14.9l1.5-1.3ZM374.5,879.6c1.7-1.7,3.8-2.6,6-2.6v-2c-2.7,0-5.4,1.1-7.4,3.2l1.4,1.4h0ZM380.4,877c2,0,4,.8,5.6,2.3l1.4-1.5c-2-1.9-4.5-2.8-7-2.8v2ZM387.5,879.3c3.3-3.1,8.4-3,11.6.3l1.4-1.4c-4-4.1-10.3-4.3-14.4-.4l1.4,1.5h0ZM399.1,879.6c1.7,1.7,2.5,4,2.5,6.3h2c0-2.8-1-5.5-3.1-7.7l-1.4,1.4ZM401.6,885.9c0,2.1-.7,4.3-2.2,6l1.5,1.3c1.8-2.1,2.7-4.7,2.7-7.3h-2ZM399.4,891.8q-.1,0-.3.3l1.5,1.3s.3-.3.4-.4l-1.5-1.3h-.1ZM399.1,892.2l-6.5,6.8,1.4,1.4,6.5-6.8-1.4-1.4ZM392.6,899l-6.5,6.8,1.4,1.4,6.5-6.8-1.4-1.4Z"/>
  <path class="st2" d="M417,877h33.8l-21.1,29.4v-19.1l-12.7-10.3h0Z"/>
  <path class="st2" d="M429.7,887.3l21.1-10.3"/>
  <line class="st4" x1="14.8" y1="79.2" x2="86.2" y2="79.2"/>
  <line class="st4" x1="89.8" y1="79.2" x2="160.2" y2="79.2"/>
  <line class="st4" x1="163.8" y1="79.2" x2="235.2" y2="79.2"/>
  <path class="st1" d="M151,975h176"/>
  <line class="st3" x1="14.8" y1="79.2" x2="86.2" y2="79.2"/>
  <line class="st3" x1="89.8" y1="79.2" x2="160.2" y2="79.2"/>
  <line class="st3" x1="163.8" y1="79.2" x2="235.2" y2="79.2"/>
  <line class="st4" x1="238.8" y1="79.2" x2="310.2" y2="79.2"/>
  <line class="st3" x1="238.8" y1="79.2" x2="279.2" y2="79.2"/>
  <line class="st4" x1="313.8" y1="79.2" x2="384.2" y2="79.2"/>
  <line class="st4" x1="387.8" y1="79.2" x2="459.2" y2="79.2"/>
  <path class="st7" d="M52.8,887.3c0-.6-.3-1-.8-1.3s-1.1-.5-1.8-.5-1,0-1.4.2-.7.4-.9.7-.3.6-.3,1,0,.6.2.8.3.4.6.6c.2,0,.5.3.7.4.3,0,.5.2.7.2l1.2.3c.3,0,.6.2,1,.3s.7.3,1.1.6c.3.2.6.5.9.9.2.4.3.8.3,1.4s-.2,1.2-.5,1.7-.8.9-1.4,1.2c-.6.3-1.4.4-2.3.4s-1.6,0-2.2-.4c-.6-.3-1.1-.6-1.4-1.1-.3-.5-.5-1-.6-1.7h1.5c0,.4.2.8.4,1.1.3.3.6.5,1,.6s.8.2,1.3.2,1,0,1.4-.3c.4-.2.8-.4,1-.7s.4-.7.4-1.1,0-.7-.3-.9-.5-.4-.9-.6c-.4-.2-.7-.3-1.1-.4l-1.4-.4c-.9-.3-1.6-.6-2.2-1.1-.5-.5-.8-1.1-.8-1.9s.2-1.2.5-1.7c.4-.5.8-.9,1.4-1.1.6-.3,1.3-.4,2-.4s1.4,0,2,.4c.6.3,1,.6,1.4,1.1.3.5.5,1,.5,1.6h-1.4.2ZM60.1,896.2c-.8,0-1.6-.2-2.2-.6-.6-.4-1.1-.9-1.4-1.6-.3-.7-.5-1.5-.5-2.4s.2-1.7.5-2.4.8-1.2,1.4-1.6c.6-.4,1.3-.6,2.1-.6s.9,0,1.3.2c.4.2.8.4,1.2.7s.7.8.9,1.3.3,1.2.3,2.1v.6h-6.7v-1.2h5.4c0-.5,0-.9-.3-1.3-.2-.4-.5-.7-.8-.9-.4-.2-.8-.3-1.3-.3s-1,0-1.4.4c-.4.3-.7.6-.9,1s-.3.9-.3,1.4v.8c0,.7,0,1.2.3,1.7s.6.8,1,1,.9.4,1.4.4.7,0,1,0,.5-.3.7-.5.4-.5.5-.8l1.3.4c0,.4-.4.8-.7,1.2-.3.3-.7.6-1.2.8s-1,.3-1.6.3h0ZM67.1,890.8v5.2h-1.3v-8.7h1.3v1.4h0c.2-.4.5-.8.9-1.1s1-.4,1.6-.4,1.1,0,1.6.4c.4.2.8.6,1,1.1s.4,1.1.4,1.8v5.5h-1.3v-5.5c0-.7-.2-1.2-.5-1.6-.4-.4-.8-.6-1.5-.6s-.8,0-1.1.3c-.3.2-.6.5-.8.8-.2.4-.3.8-.3,1.3h0ZM78.4,896.2c-.7,0-1.4-.2-1.9-.6-.6-.4-1-.9-1.3-1.6-.3-.7-.5-1.5-.5-2.4s.2-1.7.5-2.4.8-1.2,1.3-1.6c.6-.4,1.2-.6,1.9-.6s1,0,1.3.3c.3.2.6.4.8.6.2.2.3.4.4.6h0v-4.3h1.3v11.6h-1.3v-1.3h-.2c0,.2-.2.4-.4.6-.2.2-.4.5-.8.6-.3.2-.8.3-1.3.3v.2ZM78.6,895c.5,0,1,0,1.4-.4.4-.3.7-.7.8-1.2.2-.5.3-1.1.3-1.7s0-1.2-.3-1.7c-.2-.5-.5-.9-.8-1.1-.4-.3-.8-.4-1.4-.4s-1,0-1.4.4c-.4.3-.7.7-.8,1.2-.2.5-.3,1-.3,1.7s0,1.2.3,1.7c.2.5.5.9.9,1.2s.8.4,1.4.4h0ZM89.5,896v-8.7h1.3v1.4h0c.2-.5.5-.8.9-1.1s.9-.4,1.5-.4,1.1,0,1.4.4c.4.3.7.6.9,1.1h0c.2-.5.6-.8,1-1.1s1-.4,1.6-.4,1.4.2,1.9.7.7,1.2.7,2.3v5.8h-1.3v-5.8c0-.6-.2-1.1-.5-1.4-.4-.3-.8-.4-1.2-.4s-1.1.2-1.4.6c-.3.4-.5.8-.5,1.4v5.7h-1.4v-6c0-.5-.2-.9-.5-1.2s-.7-.5-1.2-.5-.7,0-1,.3c-.3.2-.5.4-.7.8-.2.3-.3.7-.3,1.1v5.5h-1.3ZM107.1,896.2c-.8,0-1.6-.2-2.2-.6-.6-.4-1.1-.9-1.4-1.6-.3-.7-.5-1.5-.5-2.4s.2-1.7.5-2.4.8-1.2,1.4-1.6c.6-.4,1.3-.6,2.1-.6s.9,0,1.3.2.8.4,1.2.7c.4.3.7.8.9,1.3.2.6.3,1.2.3,2.1v.6h-6.7v-1.2h5.4c0-.5,0-.9-.3-1.3-.2-.4-.5-.7-.8-.9-.4-.2-.8-.3-1.3-.3s-1,0-1.4.4c-.4.3-.7.6-.9,1-.2.4-.3.9-.3,1.4v.8c0,.7,0,1.2.3,1.7.2.5.6.8,1,1s.9.4,1.4.4.7,0,1,0,.5-.3.7-.5.4-.5.5-.8l1.3.4c0,.4-.4.8-.7,1.2-.3.3-.7.6-1.2.8s-1,.3-1.6.3h0ZM118.9,889.2l-1.2.3c0-.2-.2-.4-.3-.6,0-.2-.3-.4-.6-.5s-.6-.2-1-.2-1,0-1.3.4c-.4.2-.5.6-.5.9s0,.6.4.8c.2.2.6.4,1.1.5l1.3.3c.8.2,1.4.5,1.7.9.4.4.6.9.6,1.5s0,.9-.4,1.3c-.3.4-.7.7-1.2.9s-1.1.3-1.8.3-1.6-.2-2.2-.6c-.6-.4-1-1-1.1-1.7l1.3-.3c0,.5.4.8.7,1.1.3.2.8.4,1.3.4s1.1,0,1.5-.4c.4-.3.6-.6.6-1s0-.6-.3-.8c-.2-.2-.5-.4-1-.5l-1.5-.3c-.8-.2-1.4-.5-1.8-.9s-.6-.9-.6-1.5,0-.9.4-1.3c.3-.4.7-.7,1.1-.9.5-.2,1-.3,1.6-.3s1.5.2,2,.6c.5.4.8.9,1.1,1.5h.1ZM127.3,889.2l-1.2.3c0-.2-.2-.4-.3-.6,0-.2-.3-.4-.6-.5s-.6-.2-1-.2-1,0-1.3.4c-.4.2-.5.6-.5.9s0,.6.4.8c.2.2.6.4,1.1.5l1.3.3c.8.2,1.4.5,1.7.9.4.4.6.9.6,1.5s0,.9-.4,1.3c-.3.4-.7.7-1.2.9s-1.1.3-1.8.3-1.6-.2-2.2-.6c-.6-.4-1-1-1.1-1.7l1.3-.3c0,.5.4.8.7,1.1.3.2.8.4,1.3.4s1.1,0,1.5-.4c.4-.3.6-.6.6-1s0-.6-.3-.8c-.2-.2-.5-.4-1-.5l-1.5-.3c-.8-.2-1.4-.5-1.8-.9s-.6-.9-.6-1.5,0-.9.4-1.3c.3-.4.7-.7,1.1-.9.5-.2,1-.3,1.6-.3s1.5.2,2,.6c.5.4.8.9,1.1,1.5h.1ZM132,896.2c-.6,0-1.1,0-1.5-.3-.5-.2-.8-.5-1.1-.9s-.4-.9-.4-1.5,0-.9.3-1.2c.2-.3.5-.6.8-.7.3-.2.7-.3,1.1-.4.4,0,.8-.2,1.2-.2s1,0,1.3-.2c.3,0,.6,0,.7-.2.2,0,.2-.2.2-.5h0c0-.6-.2-1-.5-1.4-.3-.3-.8-.5-1.4-.5s-1.1,0-1.5.4c-.4.3-.6.6-.8.9l-1.3-.5c.2-.5.5-.9.9-1.2s.8-.5,1.2-.6c.5,0,.9-.2,1.3-.2s.6,0,1,0c.4,0,.7.2,1.1.4.3.2.6.5.9.9.2.4.3,1,.3,1.7v5.8h-1.3v-1.2h0c0,.2-.2.4-.5.6-.2.2-.5.4-.8.6-.4.2-.8.2-1.3.2h.1ZM132.2,895c.5,0,1,0,1.3-.3.4-.2.6-.5.8-.8s.3-.7.3-1v-1.2s-.2,0-.4.2c-.2,0-.4,0-.7,0s-.5,0-.7,0h-.6c-.3,0-.7,0-1,.2-.3,0-.5.2-.7.4s-.3.5-.3.8.2.8.5,1.1c.3.2.8.4,1.3.4h.2ZM142,899.5c-.6,0-1.2,0-1.7-.2s-.9-.4-1.2-.6c-.3-.3-.6-.5-.7-.9l1.1-.8c.1.2.3.3.5.5s.4.4.8.5c.3.2.8.2,1.3.2s1.3-.2,1.7-.5c.5-.3.7-.9.7-1.6v-1.8h-.1c0,.2-.2.4-.4.6-.2.2-.4.4-.8.6-.3.2-.8.3-1.4.3s-1.3-.2-1.9-.5c-.6-.3-1-.8-1.3-1.5-.3-.6-.5-1.4-.5-2.3s.2-1.7.5-2.3c.3-.7.8-1.2,1.3-1.5.6-.4,1.2-.6,1.9-.6s1,0,1.4.3c.3.2.6.4.8.6.2.2.3.4.4.6h.1v-1.4h1.3v9c0,.8-.2,1.4-.5,1.8-.3.5-.8.8-1.4,1-.6.2-1.2.3-1.9.3v.2ZM142,894.7c.5,0,1,0,1.4-.4.4-.2.7-.6.8-1.1.2-.5.3-1,.3-1.7s0-1.2-.3-1.7c-.2-.5-.5-.9-.8-1.1-.4-.3-.8-.4-1.4-.4s-1,0-1.4.4c-.4.3-.7.7-.8,1.2-.2.5-.3,1-.3,1.6s0,1.1.3,1.6c.2.5.5.8.9,1.1s.8.4,1.4.4h0ZM151.9,896.2c-.8,0-1.6-.2-2.2-.6-.6-.4-1.1-.9-1.4-1.6-.3-.7-.5-1.5-.5-2.4s.2-1.7.5-2.4.8-1.2,1.4-1.6c.6-.4,1.3-.6,2.1-.6s.9,0,1.3.2c.4.2.8.4,1.2.7s.7.8.9,1.3.3,1.2.3,2.1v.6h-6.7v-1.2h5.4c0-.5,0-.9-.3-1.3-.2-.4-.5-.7-.8-.9-.4-.2-.8-.3-1.3-.3s-1,0-1.4.4c-.4.3-.7.6-.9,1s-.3.9-.3,1.4v.8c0,.7.1,1.2.3,1.7s.6.8,1,1,.9.4,1.4.4.7,0,1,0,.5-.3.7-.5.4-.5.5-.8l1.3.4c-.1.4-.4.8-.7,1.2-.3.3-.7.6-1.2.8s-1,.3-1.6.3h0Z"/>
  <path class="st5" d="M55,861.5h273c15.7,0,28.5,12.8,28.5,28.5h0c0,15.7-12.8,28.5-28.5,28.5H55c-15.7,0-28.5-12.8-28.5-28.5h0c0-15.7,12.8-28.5,28.5-28.5Z"/>
</svg>